<svg width="180" height="180" viewBox="0 0 180 180" fill="none" xmlns="http://www.w3.org/2000/svg">
<rect width="180" height="180" fill="#0F0F0F"/>
<path d="M34.7 129.99C32.2067 129.99 30.3 129.293 28.98 127.9C27.66 126.507 27 124.563 27 122.07V58.38C27 55.8867 27.6967 53.9433 29.09 52.55C30.5567 51.1567 32.5367 50.46 35.03 50.46C37.23 50.46 38.9533 50.9 40.2 51.78C41.52 52.5867 42.73 54.0167 43.83 56.07L69.24 102.49H65.5L90.91 56.07C92.01 54.0167 93.1833 52.5867 94.43 51.78C95.75 50.9 97.4733 50.46 99.6 50.46C102.093 50.46 104 51.1567 105.32 52.55C106.713 53.9433 107.41 55.8867 107.41 58.38V122.07C107.41 124.563 106.75 126.507 105.43 127.9C104.11 129.293 102.203 129.99 99.71 129.99C97.2167 129.99 95.2733 129.293 93.88 127.9C92.56 126.507 91.9 124.563 91.9 122.07V77.52H94.32L73.86 114.15C72.98 115.543 72.0267 116.607 71 117.34C70.0467 118 68.7633 118.33 67.15 118.33C65.5367 118.33 64.2167 117.963 63.19 117.23C62.1633 116.497 61.2467 115.47 60.44 114.15L39.76 77.41H42.4V122.07C42.4 124.563 41.74 126.507 40.42 127.9C39.1733 129.293 37.2667 129.99 34.7 129.99Z" fill="#F1F1F1"/>
<path d="M100.04 129.31C97.7667 129.31 96.0067 128.687 94.76 127.44C93.5867 126.12 93 124.323 93 122.05V57.15C93 54.8033 93.5867 53.0433 94.76 51.87C96.0067 50.6233 97.7667 50 100.04 50C102.313 50 104.037 50.6233 105.21 51.87C106.457 53.0433 107.08 54.8033 107.08 57.15V85.2H107.3L138.87 53.52C140.043 52.3467 141.217 51.4667 142.39 50.88C143.563 50.2933 144.883 50 146.35 50C148.477 50 149.98 50.55 150.86 51.65C151.813 52.75 152.18 54.0333 151.96 55.5C151.813 56.9667 151.117 58.3233 149.87 59.57L117.75 91.36L117.86 84.98L151.41 119.08C152.95 120.547 153.757 122.087 153.83 123.7C153.903 125.313 153.39 126.67 152.29 127.77C151.263 128.797 149.723 129.31 147.67 129.31C145.91 129.31 144.48 128.943 143.38 128.21C142.353 127.477 141.143 126.413 139.75 125.02L107.3 92.57H107.08V122.05C107.08 124.323 106.493 126.12 105.32 127.44C104.147 128.687 102.387 129.31 100.04 129.31Z" fill="#F1F1F1"/>
</svg>
